<?xml version="1.0" encoding="utf-8"?>
<!-- Generator: Adobe Illustrator 16.0.0, SVG Export Plug-In . SVG Version: 6.00 Build 0)  -->
<!DOCTYPE svg PUBLIC "-//W3C//DTD SVG 1.1//EN" "http://www.w3.org/Graphics/SVG/1.1/DTD/svg11.dtd">
<svg version="1.1" id="Layer_1" xmlns="http://www.w3.org/2000/svg" xmlns:xlink="http://www.w3.org/1999/xlink" x="0px" y="0px"
	 width="47.203px" height="42.872px" viewBox="0 0 47.203 42.872" enable-background="new 0 0 47.203 42.872" xml:space="preserve">
<polygon fill="#E3E2E2" points="15.332,24.999 7.696,17.363 0,25.061 0.459,25.521 7.696,18.282 15.332,25.917 23.375,17.874 
	31.338,25.836 39.177,17.997 46.743,25.564 47.203,25.105 39.177,17.078 31.338,24.917 23.375,16.955 "/>
<polygon fill="#E3E2E2" points="15.332,41.954 7.696,34.318 0,42.016 0.459,42.476 7.696,35.237 15.332,42.872 23.375,34.829 
	31.338,42.792 39.177,34.952 46.743,42.52 47.203,42.061 39.177,34.034 31.338,41.872 23.375,33.911 "/>
<polygon fill="#E3E2E2" points="23.375,0 15.332,8.042 7.697,0.409 0,8.104 0.459,8.564 7.697,1.327 15.332,8.962 23.375,0.918 
	31.337,8.881 39.176,1.042 46.743,8.609 47.203,8.15 39.176,0.123 31.337,7.962 "/>
</svg>
