<?xml version="1.0" encoding="utf-8"?>
<!-- Generator: Adobe Illustrator 16.0.0, SVG Export Plug-In . SVG Version: 6.00 Build 0)  -->
<!DOCTYPE svg PUBLIC "-//W3C//DTD SVG 1.1//EN" "http://www.w3.org/Graphics/SVG/1.1/DTD/svg11.dtd">
<svg version="1.1" id="Layer_1" xmlns="http://www.w3.org/2000/svg" xmlns:xlink="http://www.w3.org/1999/xlink" x="0px" y="0px"
	 width="47.113px" height="47.208px" viewBox="0 0 47.113 47.208" enable-background="new 0 0 47.113 47.208" xml:space="preserve">
<rect x="23.227" y="18.461" fill="#E3E2E2" width="0.649" height="9.644"/>
<rect x="18.732" y="22.958" fill="#E3E2E2" width="9.642" height="0.65"/>
<rect x="23.227" y="37.565" fill="#E3E2E2" width="0.649" height="9.643"/>
<rect x="18.732" y="42.061" fill="#E3E2E2" width="9.642" height="0.65"/>
<rect x="23.227" fill="#E3E2E2" width="0.649" height="9.643"/>
<rect x="18.732" y="4.496" fill="#E3E2E2" width="9.642" height="0.65"/>
<rect x="41.968" y="18.461" fill="#E3E2E2" width="0.65" height="9.644"/>
<rect x="37.471" y="22.958" fill="#E3E2E2" width="9.644" height="0.65"/>
<rect x="41.968" y="37.565" fill="#E3E2E2" width="0.65" height="9.643"/>
<rect x="37.471" y="42.061" fill="#E3E2E2" width="9.644" height="0.65"/>
<rect x="41.968" fill="#E3E2E2" width="0.65" height="9.643"/>
<rect x="37.471" y="4.496" fill="#E3E2E2" width="9.644" height="0.65"/>
<rect x="4.496" y="18.461" fill="#E3E2E2" width="0.65" height="9.644"/>
<rect x="0" y="22.958" fill="#E3E2E2" width="9.644" height="0.65"/>
<rect x="4.496" y="37.565" fill="#E3E2E2" width="0.65" height="9.643"/>
<rect x="0" y="42.061" fill="#E3E2E2" width="9.644" height="0.65"/>
<rect x="4.496" fill="#E3E2E2" width="0.65" height="9.643"/>
<rect x="0" y="4.496" fill="#E3E2E2" width="9.644" height="0.65"/>
</svg>
