<?xml version="1.0" encoding="utf-8"?>
<!-- Generator: Adobe Illustrator 16.0.0, SVG Export Plug-In . SVG Version: 6.00 Build 0)  -->
<!DOCTYPE svg PUBLIC "-//W3C//DTD SVG 1.1//EN" "http://www.w3.org/Graphics/SVG/1.1/DTD/svg11.dtd">
<svg version="1.1" id="Layer_1" xmlns="http://www.w3.org/2000/svg" xmlns:xlink="http://www.w3.org/1999/xlink" x="0px" y="0px"
	 width="38.882px" height="39.898px" viewBox="0 0 38.882 39.898" enable-background="new 0 0 38.882 39.898" xml:space="preserve">
<g>
	<g>
		<defs>
			<rect id="SVGID_1_" y="0" width="38.882" height="39.898"/>
		</defs>
		<clipPath id="SVGID_2_">
			<use xlink:href="#SVGID_1_"  overflow="visible"/>
		</clipPath>
		<path clip-path="url(#SVGID_2_)" fill="#E3E2E2" d="M20.262,0.923c-0.003-0.484-0.398-0.874-0.882-0.871
			c-0.484,0.004-0.873,0.398-0.87,0.882c0.003,0.484,0.398,0.874,0.881,0.871C19.875,1.802,20.265,1.407,20.262,0.923"/>
	</g>
	<g>
		<defs>
			<rect id="SVGID_3_" y="0" width="38.882" height="39.898"/>
		</defs>
		<clipPath id="SVGID_4_">
			<use xlink:href="#SVGID_3_"  overflow="visible"/>
		</clipPath>
		<path clip-path="url(#SVGID_4_)" fill="#E3E2E2" d="M20.317,19.944c-0.003-0.483-0.398-0.874-0.882-0.87s-0.874,0.397-0.871,0.882
			c0.003,0.483,0.398,0.874,0.881,0.871C19.928,20.823,20.32,20.428,20.317,19.944"/>
	</g>
	<g>
		<defs>
			<rect id="SVGID_5_" y="0" width="38.882" height="39.898"/>
		</defs>
		<clipPath id="SVGID_6_">
			<use xlink:href="#SVGID_5_"  overflow="visible"/>
		</clipPath>
		<path clip-path="url(#SVGID_6_)" fill="#E3E2E2" d="M20.373,38.966c-0.004-0.484-0.397-0.874-0.882-0.871
			c-0.483,0.004-0.873,0.397-0.87,0.882c0.003,0.483,0.398,0.874,0.881,0.871S20.376,39.449,20.373,38.966"/>
	</g>
	<g>
		<defs>
			<rect id="SVGID_7_" y="0" width="38.882" height="39.898"/>
		</defs>
		<clipPath id="SVGID_8_">
			<use xlink:href="#SVGID_7_"  overflow="visible"/>
		</clipPath>
		<path clip-path="url(#SVGID_8_)" fill="#E3E2E2" d="M38.771,0.871C38.768,0.387,38.373-0.003,37.889,0
			c-0.483,0.004-0.873,0.397-0.87,0.882s0.398,0.874,0.881,0.871C38.384,1.75,38.773,1.354,38.771,0.871"/>
	</g>
	<g>
		<defs>
			<rect id="SVGID_9_" y="0" width="38.882" height="39.898"/>
		</defs>
		<clipPath id="SVGID_10_">
			<use xlink:href="#SVGID_9_"  overflow="visible"/>
		</clipPath>
		<path clip-path="url(#SVGID_10_)" fill="#E3E2E2" d="M38.826,19.892c-0.002-0.483-0.396-0.874-0.882-0.871
			c-0.483,0.004-0.873,0.398-0.87,0.882c0.004,0.484,0.398,0.874,0.881,0.871C38.439,20.771,38.83,20.376,38.826,19.892"/>
	</g>
	<g>
		<defs>
			<rect id="SVGID_11_" y="0" width="38.882" height="39.898"/>
		</defs>
		<clipPath id="SVGID_12_">
			<use xlink:href="#SVGID_11_"  overflow="visible"/>
		</clipPath>
		<path clip-path="url(#SVGID_12_)" fill="#E3E2E2" d="M38.882,38.913c-0.004-0.483-0.398-0.874-0.883-0.871
			c-0.483,0.004-0.873,0.397-0.869,0.882c0.002,0.484,0.396,0.874,0.881,0.871S38.884,39.397,38.882,38.913"/>
	</g>
	<g>
		<defs>
			<rect id="SVGID_13_" y="0" width="38.882" height="39.898"/>
		</defs>
		<clipPath id="SVGID_14_">
			<use xlink:href="#SVGID_13_"  overflow="visible"/>
		</clipPath>
		<path clip-path="url(#SVGID_14_)" fill="#E3E2E2" d="M1.752,0.975C1.75,0.491,1.354,0.101,0.871,0.104
			C0.386,0.108-0.002,0.502,0,0.986C0.002,1.47,0.398,1.86,0.881,1.857C1.365,1.854,1.755,1.459,1.752,0.975"/>
	</g>
	<g>
		<defs>
			<rect id="SVGID_15_" y="0" width="38.882" height="39.898"/>
		</defs>
		<clipPath id="SVGID_16_">
			<use xlink:href="#SVGID_15_"  overflow="visible"/>
		</clipPath>
		<path clip-path="url(#SVGID_16_)" fill="#E3E2E2" d="M1.808,19.996c-0.003-0.484-0.398-0.874-0.882-0.871
			c-0.484,0.004-0.873,0.397-0.87,0.882s0.398,0.874,0.881,0.871C1.421,20.875,1.811,20.48,1.808,19.996"/>
	</g>
	<g>
		<defs>
			<rect id="SVGID_17_" y="0" width="38.882" height="39.898"/>
		</defs>
		<clipPath id="SVGID_18_">
			<use xlink:href="#SVGID_17_"  overflow="visible"/>
		</clipPath>
		<path clip-path="url(#SVGID_18_)" fill="#E3E2E2" d="M1.863,39.018c-0.003-0.483-0.398-0.874-0.882-0.871
			c-0.484,0.004-0.873,0.398-0.87,0.882c0.003,0.484,0.398,0.874,0.881,0.871C1.476,39.896,1.866,39.502,1.863,39.018"/>
	</g>
</g>
</svg>
